# xmcd
#
# Track frame offsets:
# 150
# 71102
# 143044
# 227908
#
# Disc length: 3991 seconds
#
# Revision: 1
# Processed by: cddbd v1.4PL0 Copyright (c) Steve Scherf et al.
# Submitted via: CedeCatalogueitor 2.5 http://usuarios.lycos.es/kakasboy
#
DISCID=360f9504
DTITLE=La Pequeña Compañía - Salsas - Boleros
DYEAR=1900
DGENRE=
TTITLE0=Charadas
TTITLE1=Boleros
TTITLE2=Salsa
TTITLE3=Merengue
EXTD=
EXTT0=
EXTT1=
EXTT2=
EXTT3=
PLAYORDER=
